<?xml version="1.0" encoding="UTF-8"?>
<svg width="64px" height="64px" viewBox="0 0 64 64" version="1.1" xmlns="http://www.w3.org/2000/svg" xmlns:xlink="http://www.w3.org/1999/xlink">
    <!-- Generator: Sketch 54.1 (76490) - https://sketchapp.com -->
    <title>regex-coordinates-icon-white@1x</title>
    <desc>Created with Sketch.</desc>
    <g stroke="none" stroke-width="1" fill="none" fill-rule="evenodd">
        <path d="M11.0092035,47.0946811 L19.9992035,47.0946811 C20.5514883,47.0946811 20.9992035,47.5423964 20.9992035,48.0946811 L20.9992035,56.8746811 C20.9992035,57.4269659 20.5514883,57.8746811 19.9992035,57.8746811 L11.0092035,57.8746811 C10.4569188,57.8746811 10.0092035,57.4269659 10.0092035,56.8746811 L10.0092035,48.0946811 C10.0092035,47.5423964 10.4569188,47.0946811 11.0092035,47.0946811 Z" fill="#FFFFFF" fill-rule="nonzero"></path>
        <path d="M53.3678268,32.376725 C53.3593276,32.3935894 53.3503381,32.410238 53.340864,32.4266489 L38.8663038,57.4993938 C38.5901786,57.9776963 37.978594,58.1415933 37.5002915,57.865468 C37.3481717,57.7776488 37.2218666,57.6513109 37.1340871,57.4991682 L22.7699496,32.6027219 C22.7633677,32.591314 22.7570361,32.5798303 22.750953,32.5682772 C21.008071,29.7964725 20,26.51596 20,23 C20,13.0588745 28.0588745,5 38,5 C47.9411255,5 56,13.0588745 56,23 C56,26.4353053 55.037648,29.6458412 53.3678268,32.376725 Z M42.0496542,19.1961656 C41.9363512,19.2391427 41.8161801,19.2611681 41.695,19.2611681 C41.1427153,19.2611681 40.695,18.8134529 40.695,18.2611681 L40.695,11.96 C40.695,11.4077153 40.2472847,10.96 39.695,10.96 L36.095,10.96 C35.5427153,10.96 35.095,11.4077153 35.095,11.96 L35.095,18.2474852 C35.095,18.3716147 35.0718895,18.4946593 35.0268498,18.6103294 C34.8264565,19.1249758 34.2468023,19.3797283 33.7321558,19.179335 L28.1491466,17.0054199 C28.1385652,17.0012997 28.1279143,16.99736 28.1171987,16.9936026 C27.5960257,16.8108536 27.0253842,17.0852005 26.8426353,17.6063735 L25.6301989,21.0640625 C25.6287739,21.0681262 25.6273753,21.072199 25.626003,21.0762807 C25.4500019,21.599771 25.7316976,22.1668208 26.2551879,22.3428218 L32.0989765,24.3075438 C32.2010689,24.341868 32.2969456,24.3924603 32.3829011,24.4573655 C32.8236471,24.7901737 32.911148,25.4172634 32.5783398,25.8580095 L28.8468968,30.7996502 C28.8438225,30.8037216 28.8407794,30.8078164 28.8377678,30.8119343 C28.5117438,31.2577222 28.6088317,31.8833993 29.0546195,32.2094232 L32.0894551,34.4289299 C32.0987493,34.4357271 32.1081601,34.4423632 32.1176834,34.4488354 C32.5744647,34.7592693 33.1964156,34.6406313 33.5068496,34.1838499 L37.0206948,29.0134776 C37.0866072,28.9164923 37.1690641,28.8318557 37.2642971,28.7634358 C37.7128253,28.4411923 38.3376592,28.5435662 38.6599028,28.9920944 L42.4123313,34.2150693 C42.4153724,34.2193021 42.4184464,34.223511 42.4215533,34.2276957 C42.7507702,34.6711308 43.3771284,34.7637229 43.8205635,34.4345059 L46.8155408,32.2109622 C46.8177149,32.209348 46.8198825,32.2077251 46.8220434,32.2060933 C47.2627895,31.8732851 47.3502904,31.2461954 47.0174821,30.8054493 L43.2862003,25.8640221 C43.2202582,25.7766933 43.169097,25.6791332 43.1347568,25.5752322 C42.9614428,25.0508462 43.2460429,24.4852485 43.7704289,24.3119345 L49.7382231,22.339528 C49.743935,22.3376401 49.7496297,22.3357008 49.7553066,22.3337102 C50.2764796,22.1509612 50.5508264,21.5803198 50.3680775,21.0591468 L49.1543726,17.5978404 C49.151583,17.5898849 49.1486929,17.5819649 49.145703,17.5740825 C48.9498329,17.0576976 48.3724361,16.7978691 47.8560513,16.9937392 L42.0496542,19.1961656 Z" fill="#FFFFFF"></path>
    </g>
</svg>
